<svg version="1.0" xmlns="http://www.w3.org/2000/svg"
 width="100.000000pt" height="100.000000pt" viewBox="0 0 100.000000 100.000000"
 preserveAspectRatio="xMidYMid meet">

<g transform="translate(0.000000,100.000000) scale(0.100000,-0.100000)"
fill="#3abff8" stroke="none">
<path d="M116 881 c-16 -25 -18 -178 -3 -248 14 -63 14 -77 1 -120 -64 -203
132 -413 386 -413 253 0 450 209 387 411 -12 39 -12 56 -1 110 14 66 16 182 5
234 -6 27 -10 30 -43 29 -40 -1 -146 -48 -211 -92 -40 -28 -47 -30 -142 -28
-92 1 -103 3 -135 28 -78 59 -229 114 -244 89z m134 -101 c64 -33 63 -44 -10
-95 -52 -36 -70 -24 -70 50 0 73 12 80 80 45z m578 -41 c4 -79 -12 -91 -72
-50 -55 38 -62 49 -45 66 23 23 73 45 94 43 17 -3 20 -12 23 -59z m-171 -74
c152 -69 211 -204 147 -333 -48 -97 -146 -153 -280 -160 -98 -5 -170 13 -240
61 -92 63 -135 177 -104 273 25 76 127 158 227 184 67 17 185 5 250 -25z"/>
<path d="M340 580 c-15 -28 4 -60 35 -60 31 0 50 32 35 60 -6 12 -21 20 -35
20 -14 0 -29 -8 -35 -20z"/>
<path d="M590 580 c-15 -28 4 -60 35 -60 14 0 29 8 35 20 15 28 -4 60 -35 60
-14 0 -29 -8 -35 -20z"/>
<path d="M435 489 c-17 -4 -46 -24 -65 -44 -85 -87 -10 -207 130 -207 139 0
215 120 130 207 -49 50 -120 66 -195 44z m25 -108 c7 -15 6 -24 -6 -36 -19
-18 -33 -16 -48 7 -7 12 -6 21 3 32 18 22 38 20 51 -3z m131 3 c9 -11 10 -20
3 -32 -15 -23 -29 -25 -48 -7 -12 12 -13 21 -6 36 13 23 33 25 51 3z"/>
</g>
</svg>
